# xmcd CD database file
# Copyright (C) 1993-1998 Ti Kan
#
# Track frame offsets:
#	150
#	12898
#	27445
#	50616
#	65181
#	76941
#	85584
#	108903
#	121282
#	143644
#	159203
#	187021
#	201684
#	222248
#
# Disc length: 3161 seconds
#
# Revision: 1
# Processed by: cddbd v1.4b41PL1 Copyright (c) Steve Scherf et al.
# Submitted via: CDValet v3.31 - Copyright (c) 1997 Greg Leichner
#
DISCID=c10c570e
DTITLE=Schroeter, Breitfelder,  - Movin´ On
DYEAR=1900
DGENRE=
TTITLE0=Movin´ On
TTITLE1=The Wanderer
TTITLE2=Georgia On My Mind
TTITLE3=I Hear You Knocking
TTITLE4=Georgs Boogie
TTITLE5=Great Balls Of Fire
TTITLE6=Six Days On The Road
TTITLE7=Guilty
TTITLE8=Knocking On Heavens Door
TTITLE9=Tulsa Time
TTITLE10=Take A Walk On The Wild Side
TTITLE11=Folsome Prison
TTITLE12=The Eyes Of Ruby
TTITLE13=Train - Harp Solo
EXTD=
EXTT0=
EXTT1=
EXTT2=
EXTT3=
EXTT4=
EXTT5=
EXTT6=
EXTT7=
EXTT8=
EXTT9=
EXTT10=
EXTT11=
EXTT12=
EXTT13=
PLAYORDER=
